<svg xmlns="http://www.w3.org/2000/svg" version="1.1" xmlns:xlink="http://www.w3.org/1999/xlink" xmlns:svgjs="http://svgjs.dev/svgjs" viewBox="0 0 2.5072998046875 4.2617460722505305"><g transform="matrix(0.8571428571428572,0,0,0.8571428571428572,0.35818568638392845,2.2487785096121)"><g transform="matrix(1,0,0,1,0,0)" clip-path="url(#SvgjsClipPath2541)"><g clip-path="url(#SvgjsClipPath2539a8e2014e-a693-4f31-b4ec-cbee43f26f95)"><path d=" M 0.25568040606638265 -0.4506081085162901 C 0.243707893724759 -0.4671408763946614 0.2391245446423414 -0.48789701357379167 0.2430217360517391 -0.5079341132793112 C 0.2622262098053753 -0.6669126301018717 0.27212284250719715 -0.8268776695613143 0.272661013677013 -0.987011023348227 C 0.2747691213939652 -1.1044320251938289 0.2854820090972351 -1.2215405327290232 0.3047135559497941 -1.3373951113965377 C 0.31526610409024985 -1.4048787664486038 0.32595028484784355 -1.4723404827311488 0.3378191591596678 -1.5396047500879888 C 0.34026451452628115 -1.5564242902317247 0.3459731956171127 -1.572603855046598 0.3546242566141167 -1.5872338187219417 C 0.36344750989299407 -1.6023985381159345 0.379423287956559 -1.6119872573671965 0.3969558468693214 -1.6126413909103885 C 0.4144884057820838 -1.6132955244535803 0.43113427761251494 -1.604923907368414 0.4410630085338635 -1.5904588178417902 C 0.4543758691119336 -1.5712903093459456 0.46344817611035904 -1.5495033099342317 0.46767473596499487 -1.5265511822219353 C 0.4746861428951902 -1.4866160310236598 0.47917056241695866 -1.4462782377763759 0.48110126291293576 -1.405778255999037 C 0.4846845282036617 -1.316081906127871 0.49671633329331294 -1.2269231453353162 0.5170369673912453 -1.1394854715315539 C 0.5232017616271476 -1.1147604782793754 0.5247594142632642 -1.0888946690120191 0.5285548213907053 -1.0635773289827322 C 0.5339775137405316 -1.0112794968039402 0.5506924110496747 -0.960782991095261 0.5775440937350697 -0.9155783897820666 C 0.594678272732361 -0.9131870639040829 0.5984517410902779 -0.9243538975911774 0.6034537805414715 -0.933129405400289 C 0.6223211223310621 -0.9665640901530039 0.6403109133397402 -1.0005253053742658 0.6596170305197859 -1.0336967248927074 C 0.692920082655363 -1.0908472194995462 0.724577727076734 -1.14913853012157 0.7611715946407294 -1.2041390253151767 C 0.8351482826587829 -1.3112966922588172 0.9029965351230117 -1.4225581577593713 0.9643904167302276 -1.5373889343661848 C 0.9730461868472057 -1.5600079051116158 0.9914512036957102 -1.5775100039193695 1.0144766275507342 -1.585018003000141 L 1.0510046788061618 -1.577975657983329 C 1.0695602064413365 -1.562784353839025 1.077477968037615 -1.538120784094434 1.0712322243061645 -1.514967511913908 C 1.0622592675713483 -1.4710899728683504 1.0538128413050778 -1.4270808012056557 1.0450592722654892 -1.3831374458515295 C 1.0242393799883718 -1.278423698919306 1.0019495901532296 -1.1739732172213557 0.9829944932855482 -1.0689303887462902 C 0.9698312315718796 -0.9956768373097316 0.961055723762769 -0.921589612631307 0.9491429719119 -0.839560553385637 C 0.9603826744024347 -0.8431538817869106 0.9711116025954356 -0.8481828364450732 0.9810638815675443 -0.8545227942001721 C 1.008816425013858 -0.8810906440922575 1.0366347847687418 -0.9077681878319566 1.062237328801824 -0.936288588211569 C 1.185094438129387 -1.0727038571042082 1.3071836905236516 -1.2098869829301446 1.4299311060035984 -1.3464119456703978 C 1.4568280374385252 -1.3763144885299452 1.4805657860621726 -1.410275703751207 1.5191122041136949 -1.4253915159524015 C 1.5409659127910735 -1.4311660079840443 1.5640426199489776 -1.4221217139094655 1.5761530048729204 -1.40303590980869 C 1.5877732413177619 -1.3844182230298432 1.5888214895308368 -1.3610822211435234 1.5789172898327897 -1.3414976612972953 C 1.5522178073235686 -1.2809685961839485 1.5259351614352785 -1.220176265836328 1.496646904122369 -1.1608757718162566 C 1.4095061115778913 -0.9844003097750234 1.341276538362049 -0.8002024008617716 1.271599006357704 -0.616531022417067 C 1.2360143221917563 -0.5227427827071869 1.1980821896868719 -0.4298101550086957 1.1600403633343737 -0.3369652823882954 C 1.1521671158763098 -0.3195054851837389 1.1420722543719353 -0.3031354395009702 1.1300061878576884 -0.28826121404772653 C 1.1110298340377556 -0.261568093601259 1.0792398635671188 -0.24704509656520002 1.0466388636711288 -0.250175510156182 C 1.0191057079200414 -0.2519086729484814 0.9913312257042025 -0.249561224609544 0.9636883761055014 -0.250175510156182 C 0.9360241831708814 -0.2504341506639154 0.9083904227111516 -0.2520816324083348 0.8808914599265348 -0.2551117332988071 C 0.8300812697117781 -0.2616933641556407 0.779512405961773 -0.27007397411334244 0.7288557871336759 -0.27775254344631484 C 0.7267352321888083 -0.27798527771263193 0.7246369226997368 -0.2783887987682223 0.7225812990501622 -0.2789591757700678 C 0.6276083657860508 -0.3107923303476199 0.5307048208039378 -0.3383254860987075 0.4433227017947086 -0.38865302338396246 C 0.39450893960652583 -0.41673464837311935 0.34679211589448283 -0.4431928044175908 0.28786458095629697 -0.43691831633407596 C 0.2814701360634951 -0.4372776416853119 0.2752354750528171 -0.4390536208434015 0.2696115247133452 -0.4421178047109744 C 0.2647547334174164 -0.44458246850680205 0.2600969829256475 -0.4474211290427308 0.25568040606638265 -0.4506081085162901 Z" fill="#004bfe" transform="matrix(1,0,0,1,0,0)" fill-rule="nonzero"></path></g><g clip-path="url(#SvgjsClipPath2539a8e2014e-a693-4f31-b4ec-cbee43f26f95)"><path d=" M 1.6333473770188058 -1.939833722492044 C 1.6612096143127344 -1.9446821905565783 1.6840259346164248 -1.9500133115506135 1.7071493976934333 -1.9523826986590738 C 1.7492008822124017 -1.9580761556846318 1.7912297418359098 -1.9417762028602255 1.8184464231944897 -1.909218637549282 C 1.8456631045530707 -1.8766610722383386 1.8542537068896057 -1.8324082186035053 1.8411952794776127 -1.7920322322170827 C 1.8315004266093915 -1.7549089528070896 1.8139488581368106 -1.7202995940031003 1.7897269261771735 -1.6905434844047074 C 1.7372055119396403 -1.6302118682170657 1.673802468018809 -1.6412690080565462 1.62652441969722 -1.6831501190755311 C 1.5874746115386764 -1.7150253829946562 1.5697128191679748 -1.7661807028277146 1.5806065750860452 -1.8153970217588424 C 1.5861031785647062 -1.8425041589603393 1.5940483420606268 -1.8690565722701817 1.6043443237096915 -1.8947276123532113 C 1.6124711704436954 -1.9106997031038613 1.6221880147039522 -1.9258115274602075 1.6333473770188047 -1.9398337224920439 Z" fill="#004bfe" transform="matrix(1,0,0,1,0,0)" fill-rule="nonzero"></path></g><g clip-path="url(#SvgjsClipPath2539a8e2014e-a693-4f31-b4ec-cbee43f26f95)"><path d=" M 0.5495502238240054 -1.8283628345468046 C 0.529212984476389 -1.8197628368938754 0.509665540831594 -1.81127253308856 0.4899425870306152 -1.8031771271346544 C 0.45345416247591736 -1.7886703742015886 0.41210209553323096 -1.7936246953209198 0.38007322926053816 -1.8163403888483218 C 0.3570765252737338 -1.8293340345304623 0.3428337398511058 -1.8536808194940853 0.34277732107181536 -1.8800944530815173 C 0.34368878531431846 -1.920947131126184 0.35712931231111306 -1.9605335038022114 0.3812798615842917 -1.9934959527447615 C 0.4037012840365718 -2.02561431132611 0.4281630120544706 -2.0549245074085425 0.47381759143137414 -2.0596632816254625 C 0.48343087878318547 -2.0582030331345407 0.4929531214211188 -2.056196037378545 0.5023379918109876 -2.053652058776221 C 0.5559563445246583 -2.036561757317976 0.578004807895051 -2.001569419929144 0.5695145040897358 -1.9470515776650386 C 0.5639859341699942 -1.9114230159600456 0.5575798134693415 -1.8761015970283714 0.5495502238240054 -1.8283628345468046 Z" fill="#004bfe" transform="matrix(1,0,0,1,0,0)" fill-rule="nonzero"></path></g><g clip-path="url(#SvgjsClipPath2539a8e2014e-a693-4f31-b4ec-cbee43f26f95)"><path d=" M 1.2258566719027097 -1.8747413933179593 C 1.2171424021036676 -1.8582362010874058 1.2069114097985856 -1.842577568212722 1.1952959659574787 -1.8279679366953947 C 1.1661508910967018 -1.7918599220994849 1.116322624579472 -1.7799458384793407 1.0739965092660346 -1.7989648833862808 C 1.0282102972719944 -1.8159454909969117 1.0097159145642922 -1.8417674227252225 1.006929690834899 -1.8957806732903042 C 1.004011834488369 -1.9522949435809827 1.0249194818435772 -1.9859270772594027 1.0745011009650574 -2.0045311538147192 C 1.1289531269205955 -2.024978087009949 1.1912153548262412 -2.0114638049839173 1.22041585706106 -1.972895448162872 C 1.238186260374512 -1.9494429035430214 1.2409724841039051 -1.9244546450565763 1.2258566719027097 -1.8747413933179593 Z" fill="#004bfe" transform="matrix(1,0,0,1,0,0)" fill-rule="nonzero"></path></g></g><g><path d=" M 0.3765 0.3885000000000001 L 0.3765 0.3855000000000001 C 0.3765 0.3855000000000001 0.3795 0.3615000000000001 0.3795 0.3585000000000001 L 0.3795 0.3540000000000001 C 0.3765 0.34950000000000014 0.381 0.34350000000000014 0.378 0.33600000000000013 C 0.3795 0.33150000000000013 0.375 0.31800000000000006 0.3705 0.3135000000000001 L 0.3615 0.30900000000000016 L 0.3525 0.30900000000000016 C 0.34500000000000003 0.3075000000000001 0.3405 0.3045000000000001 0.3345 0.3045000000000001 C 0.252 0.3045000000000001 0.1785 0.40950000000000014 0.138 0.47250000000000014 C 0.126 0.4935000000000001 0.117 0.5025000000000002 0.108 0.5205000000000002 C 0.1245 0.4545000000000001 0.165 0.32700000000000007 0.165 0.2775000000000001 C 0.165 0.26550000000000007 0.15 0.2520000000000001 0.123 0.24750000000000016 C 0.117 0.2460000000000001 0.1095 0.24450000000000016 0.10200000000000001 0.24450000000000016 C 0.0975 0.24450000000000016 0.093 0.2460000000000001 0.09 0.24750000000000016 L 0.07200000000000001 0.3045000000000001 C 0.036000000000000004 0.4170000000000001 -0.024 0.5970000000000001 -0.024 0.7140000000000001 C -0.024 0.7680000000000001 -0.009000000000000001 0.7695000000000001 0.033 0.7995000000000001 C 0.0375 0.7995000000000001 0.039 0.8040000000000002 0.042 0.8040000000000002 L 0.0465 0.8025000000000001 L 0.051000000000000004 0.8040000000000002 C 0.0615 0.8025000000000001 0.07050000000000001 0.7920000000000001 0.075 0.7845000000000001 C 0.093 0.7545000000000002 0.099 0.7200000000000001 0.111 0.6840000000000002 C 0.1515 0.5700000000000001 0.2085 0.4395000000000001 0.315 0.3690000000000001 C 0.324 0.3615000000000001 0.3435 0.3525000000000001 0.354 0.3525000000000001 C 0.357 0.3525000000000001 0.3705 0.3810000000000001 0.3765 0.3885000000000001 M 0.7530205078125001 0.4425000000000001 C 0.7365205078125 0.4515000000000001 0.7035205078125 0.5070000000000001 0.6915205078125 0.5250000000000001 C 0.6495205078124999 0.5865000000000001 0.5130205078125 0.7500000000000001 0.4425205078125 0.7500000000000001 C 0.3585205078125 0.7500000000000001 0.4245205078125 0.5490000000000002 0.4455205078125 0.5115000000000001 C 0.44852050781249997 0.5055000000000001 0.6210205078125 0.5040000000000001 0.6210205078125 0.3675000000000001 C 0.6210205078125 0.33300000000000013 0.6060205078125 0.3225000000000001 0.5760205078125 0.3135000000000001 C 0.5670205078125 0.30900000000000016 0.5205205078125 0.2925000000000001 0.5100205078125 0.2925000000000001 C 0.5040205078125 0.2925000000000001 0.4845205078125 0.2925000000000001 0.4830205078125 0.29700000000000015 L 0.4815205078125 0.30000000000000016 C 0.4020205078125 0.3615000000000001 0.3135205078125 0.5355000000000001 0.3075205078125 0.6405000000000001 C 0.3030205078125 0.7335000000000002 0.3555205078125 0.7920000000000001 0.4500205078125 0.8055000000000001 C 0.45302050781250003 0.8055000000000001 0.45602050781250003 0.8070000000000002 0.4605205078125 0.8070000000000002 C 0.5475205078125001 0.8070000000000002 0.6945205078125001 0.6435000000000002 0.7335205078125 0.5445000000000001 C 0.7380205078125 0.5295000000000001 0.7530205078125001 0.5130000000000001 0.7545205078125 0.4935000000000001 L 0.7515205078125 0.4890000000000001 C 0.7515205078125 0.4890000000000001 0.7470205078125001 0.4875000000000001 0.7470205078125001 0.4860000000000001 C 0.7470205078125001 0.4785000000000001 0.7545205078125 0.46800000000000014 0.7545205078125 0.45900000000000013 L 0.7515205078125 0.4530000000000001 C 0.7530205078125001 0.4500000000000001 0.7530205078125001 0.4455000000000001 0.7530205078125001 0.4425000000000001 M 0.5445205078124999 0.3540000000000001 C 0.5745205078125 0.3855000000000001 0.5355205078125 0.4395000000000001 0.4725205078125 0.4530000000000001 C 0.4905205078125 0.4215000000000001 0.5310205078125 0.3615000000000001 0.5445205078124999 0.3540000000000001 M 1.061977294921875 0.41250000000000014 L 1.061977294921875 0.40500000000000014 C 1.042477294921875 0.4260000000000001 1.025977294921875 0.4545000000000001 1.010977294921875 0.4785000000000001 C 0.9794772949218751 0.5235000000000001 0.8939772949218749 0.6480000000000001 0.785977294921875 0.7590000000000001 L 0.7799772949218751 0.7590000000000001 C 0.769477294921875 0.7410000000000001 0.770977294921875 0.7185000000000001 0.770977294921875 0.6960000000000002 C 0.770977294921875 0.6015000000000001 0.805477294921875 0.5040000000000001 0.842977294921875 0.40650000000000014 C 0.916477294921875 0.24150000000000016 0.949477294921875 0.07500000000000007 0.931477294921875 0.03600000000000014 C 0.916477294921875 0.007500000000000062 0.878977294921875 0.0045000000000000595 0.860977294921875 1.1102230246251565e-16 L 0.857977294921875 0.0015000000000000568 C 0.839977294921875 0.03750000000000009 0.826477294921875 0.09300000000000008 0.814477294921875 0.13050000000000006 C 0.758977294921875 0.30000000000000016 0.671977294921875 0.4995000000000001 0.671977294921875 0.6825000000000001 C 0.671977294921875 0.7320000000000001 0.695977294921875 0.7935000000000001 0.763477294921875 0.8055000000000001 C 0.769477294921875 0.8070000000000002 0.7739772949218751 0.8070000000000002 0.7799772949218751 0.8070000000000002 C 0.847477294921875 0.8070000000000002 0.892477294921875 0.7305000000000001 0.931477294921875 0.6825000000000001 C 0.943477294921875 0.6660000000000001 0.962977294921875 0.6420000000000001 0.971977294921875 0.6240000000000001 C 0.977977294921875 0.6210000000000001 0.9794772949218751 0.6150000000000001 0.983977294921875 0.6105000000000002 L 0.986977294921875 0.6030000000000001 L 0.992977294921875 0.6015000000000001 L 0.989977294921875 0.5970000000000001 L 0.994477294921875 0.5955000000000001 C 0.997477294921875 0.5880000000000001 1.013977294921875 0.5610000000000002 1.016977294921875 0.558 C 1.019977294921875 0.5505000000000001 1.024477294921875 0.5475000000000001 1.028977294921875 0.5400000000000001 L 1.024477294921875 0.5355000000000001 C 1.025977294921875 0.5310000000000001 1.031977294921875 0.5265000000000002 1.033477294921875 0.5205000000000002 C 1.024477294921875 0.5325000000000002 1.016977294921875 0.5445000000000001 1.007977294921875 0.5565000000000001 C 1.013977294921875 0.5415000000000001 1.049977294921875 0.4860000000000001 1.049977294921875 0.47700000000000015 L 1.049977294921875 0.47250000000000014 C 1.043977294921875 0.4785000000000001 1.042477294921875 0.4860000000000001 1.0394772949218751 0.4890000000000001 C 1.040977294921875 0.4815000000000001 1.043977294921875 0.47700000000000015 1.049977294921875 0.46950000000000014 L 1.0514772949218751 0.46200000000000013 C 1.0514772949218751 0.46200000000000013 1.0514772949218751 0.46050000000000013 1.0514772949218751 0.46050000000000013 L 1.048477294921875 0.46200000000000013 L 1.046977294921875 0.4545000000000001 C 1.048477294921875 0.4530000000000001 1.057477294921875 0.4365000000000001 1.057477294921875 0.4335000000000001 C 1.057477294921875 0.4305000000000001 1.058977294921875 0.4260000000000001 1.060477294921875 0.4230000000000001 C 1.061977294921875 0.4185000000000001 1.061977294921875 0.4170000000000001 1.061977294921875 0.41250000000000014 M 1.274939208984375 0.4860000000000001 L 1.276439208984375 0.4860000000000001 C 1.261439208984375 0.5400000000000001 1.2494392089843749 0.5985000000000001 1.2494392089843749 0.6555000000000001 C 1.2494392089843749 0.7050000000000001 1.2674392089843751 0.7590000000000001 1.318439208984375 0.7785000000000001 C 1.321439208984375 0.7815000000000001 1.348439208984375 0.7875000000000001 1.355939208984375 0.7875000000000001 C 1.435439208984375 0.7875000000000001 1.547939208984375 0.6075000000000002 1.597439208984375 0.5175000000000001 L 1.6004392089843749 0.4890000000000001 C 1.589939208984375 0.4860000000000001 1.603439208984375 0.47100000000000014 1.591439208984375 0.47250000000000014 C 1.589939208984375 0.47100000000000014 1.603439208984375 0.4395000000000001 1.6004392089843749 0.4350000000000001 C 1.567439208984375 0.4815000000000001 1.399439208984375 0.7335000000000002 1.354439208984375 0.7335000000000002 C 1.3499392089843751 0.7335000000000002 1.345439208984375 0.7005000000000001 1.345439208984375 0.6945000000000001 C 1.345439208984375 0.5940000000000001 1.372439208984375 0.5040000000000001 1.400939208984375 0.40800000000000014 C 1.411439208984375 0.3705000000000001 1.430939208984375 0.33150000000000013 1.430939208984375 0.2925000000000001 C 1.430939208984375 0.2610000000000001 1.375439208984375 0.2520000000000001 1.3499392089843751 0.2520000000000001 C 1.345439208984375 0.2520000000000001 1.340939208984375 0.2550000000000001 1.3379392089843751 0.25950000000000006 L 1.340939208984375 0.26550000000000007 C 1.319939208984375 0.2925000000000001 1.301939208984375 0.3195000000000001 1.285439208984375 0.34200000000000014 C 1.265939208984375 0.31500000000000017 1.216439208984375 0.30000000000000016 1.184939208984375 0.30000000000000016 C 1.081439208984375 0.30000000000000016 0.962939208984375 0.5340000000000001 0.970439208984375 0.6300000000000001 C 0.973439208984375 0.6825000000000001 1.007939208984375 0.7455000000000002 1.067939208984375 0.7455000000000002 C 1.123439208984375 0.7455000000000002 1.237439208984375 0.5445000000000001 1.274939208984375 0.4860000000000001 M 1.066439208984375 0.6705000000000001 L 1.063439208984375 0.6600000000000001 C 1.063439208984375 0.5775000000000001 1.130939208984375 0.4425000000000001 1.192439208984375 0.3855000000000001 C 1.1969392089843751 0.3795000000000001 1.210439208984375 0.3705000000000001 1.219439208984375 0.3705000000000001 C 1.229939208984375 0.3705000000000001 1.246439208984375 0.3825000000000001 1.2494392089843749 0.3900000000000001 C 1.192439208984375 0.47700000000000015 1.124939208984375 0.5835000000000001 1.066439208984375 0.6705000000000001 M 1.9709458007812501 0.5490000000000002 C 1.97994580078125 0.5040000000000001 1.9874458007812499 0.4170000000000001 1.9874458007812499 0.34200000000000014 C 1.9874458007812499 0.33600000000000013 1.98894580078125 0.33300000000000013 1.98594580078125 0.3285000000000001 C 1.97244580078125 0.3165000000000001 1.96794580078125 0.3165000000000001 1.96194580078125 0.3135000000000001 C 1.95444580078125 0.30900000000000016 1.92294580078125 0.30000000000000016 1.91394580078125 0.30000000000000016 C 1.89894580078125 0.30000000000000016 1.88394580078125 0.30600000000000016 1.87494580078125 0.3165000000000001 L 1.87794580078125 0.33150000000000013 C 1.81494580078125 0.40950000000000014 1.7009458007812501 0.5850000000000002 1.60494580078125 0.7020000000000002 L 1.60194580078125 0.6975000000000001 C 1.59594580078125 0.6075000000000002 1.70394580078125 0.3885000000000001 1.70394580078125 0.3165000000000001 C 1.70394580078125 0.29100000000000015 1.66194580078125 0.2715000000000001 1.63794580078125 0.2715000000000001 C 1.63194580078125 0.2715000000000001 1.62744580078125 0.27300000000000013 1.62144580078125 0.2745000000000001 C 1.62294580078125 0.29700000000000015 1.60944580078125 0.31800000000000006 1.60194580078125 0.33750000000000013 L 1.54644580078125 0.47700000000000015 C 1.52094580078125 0.5415000000000001 1.50144580078125 0.6135000000000002 1.50144580078125 0.6795000000000001 C 1.50144580078125 0.7110000000000001 1.55694580078125 0.7680000000000001 1.59294580078125 0.7740000000000001 C 1.62444580078125 0.7740000000000001 1.65594580078125 0.7500000000000001 1.67694580078125 0.7275000000000001 C 1.75494580078125 0.6405000000000001 1.86144580078125 0.4845000000000001 1.8884458007812501 0.4410000000000001 C 1.88094580078125 0.5160000000000001 1.87344580078125 0.5670000000000002 1.86144580078125 0.6195000000000002 C 1.85094580078125 0.6345000000000001 1.82094580078125 0.6615000000000001 1.79394580078125 0.687 C 1.71144580078125 0.7665000000000002 1.62294580078125 0.9105000000000001 1.59144580078125 0.9990000000000001 C 1.59294580078125 1.0065000000000002 1.57794580078125 1.0365000000000002 1.57794580078125 1.0470000000000002 C 1.57794580078125 1.0515 1.62144580078125 1.0890000000000002 1.62294580078125 1.092 C 1.62744580078125 1.0935000000000001 1.63194580078125 1.0995000000000001 1.63194580078125 1.0995000000000001 C 1.64094580078125 1.1085000000000003 1.67544580078125 1.1175000000000002 1.6889458007812501 1.1175000000000002 C 1.69194580078125 1.1175000000000002 1.69794580078125 1.1145 1.70244580078125 1.1145 C 1.70844580078125 1.116 1.72794580078125 1.0995000000000001 1.73394580078125 1.0935000000000001 C 1.83744580078125 1.0095 1.89744580078125 0.8550000000000001 1.93194580078125 0.7290000000000001 C 1.93644580078125 0.7050000000000001 1.95144580078125 0.6585000000000001 1.9589458007812501 0.6345000000000001 C 1.96044580078125 0.6315000000000002 2.01594580078125 0.5865000000000001 2.01594580078125 0.5805000000000001 L 1.96044580078125 0.6255000000000002 C 1.9589458007812501 0.6195000000000002 1.98144580078125 0.6015000000000001 1.9874458007812499 0.5970000000000001 C 2.0894458007812498 0.5115000000000001 2.08644580078125 0.5205000000000002 2.12994580078125 0.4845000000000001 C 2.1134458007812498 0.4935000000000001 2.07594580078125 0.5235000000000001 2.04894580078125 0.5430000000000001 C 2.06244580078125 0.5250000000000001 2.11494580078125 0.4890000000000001 2.1359458007812497 0.46950000000000014 L 2.14494580078125 0.45900000000000013 C 2.14494580078125 0.45750000000000013 2.14494580078125 0.4530000000000001 2.14194580078125 0.4530000000000001 L 2.14044580078125 0.4530000000000001 C 2.13894580078125 0.4545000000000001 2.13894580078125 0.4545000000000001 2.13744580078125 0.4545000000000001 C 2.13294580078125 0.4545000000000001 2.12994580078125 0.4500000000000001 2.1269458007812503 0.4485000000000001 C 2.12394580078125 0.4485000000000001 2.12244580078125 0.4485000000000001 2.12094580078125 0.4500000000000001 L 2.12244580078125 0.4440000000000001 C 2.05344580078125 0.47700000000000015 2.03094580078125 0.4995000000000001 1.9709458007812501 0.5490000000000002 M 1.64694580078125 1.0470000000000002 C 1.64394580078125 1.0470000000000002 1.64094580078125 1.0455 1.64094580078125 1.0425000000000002 C 1.64994580078125 0.9705000000000001 1.78794580078125 0.7650000000000001 1.83444580078125 0.7320000000000001 L 1.83444580078125 0.7335000000000002 C 1.82094580078125 0.7785000000000001 1.71294580078125 1.0470000000000002 1.64694580078125 1.0470000000000002 M 1.70994580078125 0.8895000000000002 C 1.69194580078125 0.9165000000000001 1.67244580078125 0.9465000000000001 1.65744580078125 0.9750000000000001 C 1.65444580078125 0.9840000000000001 1.63944580078125 1.0110000000000001 1.63644580078125 1.0275 C 1.63794580078125 0.9945000000000002 1.68444580078125 0.9105000000000001 1.70994580078125 0.8895000000000002" fill="#004bfe" fill-rule="nonzero"></path></g><g><path d=" M 0.4170672607421874 1.4783749999999998 C 0.4170672607421874 1.4743749999999998 0.4165672607421874 1.468875 0.4140672607421874 1.4673749999999999 C 0.4075672607421874 1.4638749999999998 0.4065672607421874 1.4623749999999998 0.4015672607421874 1.4623749999999998 C 0.39356726074218745 1.462875 0.39106726074218745 1.4703749999999998 0.39056726074218745 1.4778749999999998 C 0.38806726074218745 1.533375 0.38306726074218744 1.5808749999999998 0.37956726074218744 1.6368749999999999 C 0.37706726074218744 1.6833749999999998 0.37206726074218743 1.7218749999999998 0.37406726074218744 1.768875 C 0.37406726074218744 1.779375 0.38456726074218744 1.7823749999999998 0.39306726074218745 1.7823749999999998 C 0.3995672607421874 1.7823749999999998 0.3995672607421874 1.7798749999999999 0.3995672607421874 1.771375 C 0.3995672607421874 1.768875 0.3995672607421874 1.766875 0.3995672607421874 1.7638749999999999 C 0.4055672607421874 1.7598749999999999 0.4150672607421874 1.7583749999999998 0.42906726074218743 1.745375 C 0.4710672607421874 1.7053749999999999 0.4865672607421874 1.6253749999999998 0.4840672607421874 1.569375 C 0.4840672607421874 1.563375 0.4830672607421874 1.555875 0.4830672607421874 1.549875 C 0.4795672607421874 1.525375 0.46556726074218746 1.4943749999999998 0.44206726074218744 1.4833749999999999 C 0.43606726074218743 1.4813749999999999 0.4230672607421874 1.4783749999999998 0.4170672607421874 1.4783749999999998 M 0.4005672607421874 1.7338749999999998 C 0.4025672607421874 1.6953749999999999 0.4055672607421874 1.6448749999999999 0.4080672607421874 1.6063749999999999 C 0.4105672607421874 1.5748749999999998 0.4130672607421874 1.5363749999999998 0.4165672607421874 1.505375 C 0.4180672607421874 1.5048749999999997 0.4205672607421874 1.5043749999999998 0.4225672607421874 1.5043749999999998 C 0.4240672607421874 1.5043749999999998 0.4255672607421874 1.5043749999999998 0.4265672607421874 1.5048749999999997 C 0.44906726074218745 1.509375 0.4560672607421874 1.5423749999999998 0.4570672607421874 1.557875 C 0.45956726074218746 1.609875 0.44706726074218744 1.6793749999999998 0.4160672607421874 1.7213749999999999 C 0.4120672607421874 1.7273749999999999 0.4060672607421874 1.7293749999999999 0.4005672607421874 1.7338749999999998 M 0.5083150634765624 1.4878749999999998 C 0.5083150634765624 1.491375 0.5153150634765624 1.4928749999999997 0.5158150634765625 1.5078749999999999 C 0.5168150634765625 1.5223749999999998 0.5118150634765625 1.567875 0.5108150634765625 1.5828749999999998 C 0.5088150634765625 1.6233749999999998 0.5073150634765624 1.6638749999999998 0.5058150634765625 1.704875 C 0.5048150634765625 1.7243749999999998 0.5038150634765625 1.7443749999999998 0.5043150634765624 1.7643749999999998 C 0.5048150634765625 1.7778749999999999 0.5108150634765625 1.7808749999999998 0.5233150634765624 1.7808749999999998 C 0.5293150634765624 1.7808749999999998 0.5303150634765624 1.7698749999999999 0.5298150634765625 1.755375 C 0.5293150634765624 1.7323749999999998 0.5313150634765624 1.7018749999999998 0.5318150634765625 1.694875 C 0.5323150634765624 1.6813749999999998 0.5338150634765625 1.6718749999999998 0.5338150634765625 1.6538749999999998 C 0.5418150634765625 1.6708749999999999 0.5668150634765624 1.7333749999999999 0.5873150634765625 1.7363749999999998 C 0.5883150634765625 1.7363749999999998 0.5893150634765625 1.7363749999999998 0.5903150634765625 1.7363749999999998 C 0.5948150634765624 1.7363749999999998 0.5998150634765624 1.7343749999999998 0.5978150634765624 1.7298749999999998 C 0.5943150634765625 1.7233749999999999 0.5768150634765624 1.692375 0.5638150634765624 1.662375 C 0.5628150634765625 1.6598749999999998 0.5528150634765625 1.6328749999999999 0.5503150634765624 1.630375 C 0.5668150634765624 1.6113749999999998 0.5893150634765625 1.5823749999999999 0.5883150634765625 1.5428749999999998 C 0.5873150634765625 1.4983749999999998 0.5613150634765625 1.4878749999999998 0.5508150634765625 1.4793749999999999 C 0.5468150634765625 1.472375 0.5413150634765624 1.4678749999999998 0.5328150634765625 1.4678749999999998 C 0.5208150634765625 1.468375 0.5158150634765625 1.4793749999999999 0.5083150634765624 1.4878749999999998 M 0.5358150634765625 1.6053749999999998 C 0.5378150634765625 1.583875 0.5423150634765624 1.530875 0.5438150634765625 1.509375 C 0.5528150634765625 1.510875 0.5638150634765624 1.5243749999999998 0.5633150634765625 1.5438749999999999 C 0.5623150634765625 1.5713749999999997 0.5478150634765625 1.5968749999999998 0.5358150634765625 1.6053749999999998 M 0.6385784912109375 1.474875 C 0.6295784912109375 1.474875 0.6245784912109374 1.4778749999999998 0.6225784912109374 1.487375 C 0.6215784912109374 1.4968749999999997 0.6215784912109374 1.5048749999999997 0.6215784912109374 1.5143749999999998 C 0.6205784912109374 1.5903749999999999 0.6165784912109374 1.6718749999999998 0.6110784912109375 1.748875 C 0.6110784912109375 1.7503749999999998 0.6105784912109374 1.7523749999999998 0.6115784912109374 1.753375 C 0.6105784912109374 1.759375 0.6145784912109374 1.7703749999999998 0.6205784912109374 1.771375 C 0.6235784912109374 1.7718749999999999 0.6255784912109374 1.7718749999999999 0.6275784912109375 1.7718749999999999 C 0.6335784912109375 1.7718749999999999 0.6345784912109375 1.769375 0.6355784912109375 1.7623749999999998 C 0.6440784912109375 1.6733749999999998 0.6440784912109375 1.5708749999999998 0.6495784912109375 1.486875 C 0.6505784912109375 1.4778749999999998 0.6440784912109375 1.478875 0.6385784912109375 1.474875 M 0.6988377685546875 1.474875 C 0.6943377685546875 1.474875 0.6863377685546875 1.476375 0.6858377685546875 1.4813749999999999 C 0.6848377685546875 1.4848749999999997 0.6893377685546875 1.4903749999999998 0.6893377685546875 1.4938749999999998 C 0.6903377685546875 1.514875 0.6858377685546875 1.5668749999999998 0.6818377685546875 1.609875 C 0.6773377685546875 1.6568749999999999 0.6733377685546875 1.716875 0.6733377685546875 1.7638749999999999 C 0.6733377685546875 1.7758749999999999 0.6788377685546875 1.7838749999999999 0.6918377685546875 1.7843749999999998 C 0.7008377685546875 1.7843749999999998 0.7008377685546875 1.7768749999999998 0.7008377685546875 1.7698749999999999 C 0.7013377685546875 1.762875 0.6988377685546875 1.7563749999999998 0.6988377685546875 1.748875 C 0.6998377685546875 1.726875 0.7013377685546875 1.684375 0.7038377685546875 1.662375 C 0.7463377685546875 1.6448749999999999 0.7723377685546875 1.581375 0.7728377685546876 1.5468749999999998 C 0.7738377685546876 1.497375 0.7368377685546875 1.4758749999999998 0.6988377685546875 1.474875 M 0.7178377685546875 1.499375 C 0.7373377685546875 1.5003749999999998 0.7488377685546875 1.5198749999999999 0.7483377685546875 1.5468749999999998 C 0.7483377685546875 1.5688749999999998 0.7328377685546875 1.6128749999999998 0.7053377685546875 1.6338749999999997 C 0.7088377685546875 1.5908749999999998 0.7148377685546875 1.541375 0.7178377685546875 1.499375 M 0.8893231201171876 1.4783749999999998 C 0.8893231201171876 1.4743749999999998 0.8888231201171876 1.468875 0.8863231201171876 1.4673749999999999 C 0.8798231201171876 1.4638749999999998 0.8788231201171876 1.4623749999999998 0.8738231201171875 1.4623749999999998 C 0.8658231201171875 1.462875 0.8633231201171876 1.4703749999999998 0.8628231201171875 1.4778749999999998 C 0.8603231201171876 1.533375 0.8553231201171876 1.5808749999999998 0.8518231201171875 1.6368749999999999 C 0.8493231201171876 1.6833749999999998 0.8443231201171876 1.7218749999999998 0.8463231201171876 1.768875 C 0.8463231201171876 1.779375 0.8568231201171875 1.7823749999999998 0.8653231201171876 1.7823749999999998 C 0.8718231201171875 1.7823749999999998 0.8718231201171875 1.7798749999999999 0.8718231201171875 1.771375 C 0.8718231201171875 1.768875 0.8718231201171875 1.766875 0.8718231201171875 1.7638749999999999 C 0.8778231201171875 1.7598749999999999 0.8873231201171876 1.7583749999999998 0.9013231201171876 1.745375 C 0.9433231201171876 1.7053749999999999 0.9588231201171875 1.6253749999999998 0.9563231201171876 1.569375 C 0.9563231201171876 1.563375 0.9553231201171876 1.555875 0.9553231201171876 1.549875 C 0.9518231201171876 1.525375 0.9378231201171876 1.4943749999999998 0.9143231201171875 1.4833749999999999 C 0.9083231201171875 1.4813749999999999 0.8953231201171876 1.4783749999999998 0.8893231201171876 1.4783749999999998 M 0.8728231201171875 1.7338749999999998 C 0.8748231201171875 1.6953749999999999 0.8778231201171875 1.6448749999999999 0.8803231201171876 1.6063749999999999 C 0.8828231201171876 1.5748749999999998 0.8853231201171876 1.5363749999999998 0.8888231201171876 1.505375 C 0.8903231201171876 1.5048749999999997 0.8928231201171876 1.5043749999999998 0.8948231201171876 1.5043749999999998 C 0.8963231201171875 1.5043749999999998 0.8978231201171876 1.5043749999999998 0.8988231201171876 1.5048749999999997 C 0.9213231201171875 1.509375 0.9283231201171875 1.5423749999999998 0.9293231201171875 1.557875 C 0.9318231201171876 1.609875 0.9193231201171875 1.6793749999999998 0.8883231201171876 1.7213749999999999 C 0.8843231201171876 1.7273749999999999 0.8783231201171876 1.7293749999999999 0.8728231201171875 1.7338749999999998 M 0.9805709228515626 1.4878749999999998 C 0.9805709228515626 1.491375 0.9875709228515626 1.4928749999999997 0.9880709228515626 1.5078749999999999 C 0.9890709228515626 1.5223749999999998 0.9840709228515626 1.567875 0.9830709228515626 1.5828749999999998 C 0.9810709228515626 1.6233749999999998 0.9795709228515626 1.6638749999999998 0.9780709228515626 1.704875 C 0.9770709228515626 1.7243749999999998 0.9760709228515626 1.7443749999999998 0.9765709228515626 1.7643749999999998 C 0.9770709228515626 1.7778749999999999 0.9830709228515626 1.7808749999999998 0.9955709228515626 1.7808749999999998 C 1.0015709228515626 1.7808749999999998 1.0025709228515627 1.7698749999999999 1.0020709228515625 1.755375 C 1.0015709228515626 1.7323749999999998 1.0035709228515626 1.7018749999999998 1.0040709228515625 1.694875 C 1.0045709228515627 1.6813749999999998 1.0060709228515625 1.6718749999999998 1.0060709228515625 1.6538749999999998 C 1.0140709228515625 1.6708749999999999 1.0390709228515627 1.7333749999999999 1.0595709228515626 1.7363749999999998 C 1.0605709228515625 1.7363749999999998 1.0615709228515626 1.7363749999999998 1.0625709228515625 1.7363749999999998 C 1.0670709228515627 1.7363749999999998 1.0720709228515626 1.7343749999999998 1.0700709228515626 1.7298749999999998 C 1.0665709228515625 1.7233749999999999 1.0490709228515627 1.692375 1.0360709228515625 1.662375 C 1.0350709228515627 1.6598749999999998 1.0250709228515626 1.6328749999999999 1.0225709228515627 1.630375 C 1.0390709228515627 1.6113749999999998 1.0615709228515626 1.5823749999999999 1.0605709228515625 1.5428749999999998 C 1.0595709228515626 1.4983749999999998 1.0335709228515626 1.4878749999999998 1.0230709228515626 1.4793749999999999 C 1.0190709228515626 1.472375 1.0135709228515626 1.4678749999999998 1.0050709228515626 1.4678749999999998 C 0.9930709228515626 1.468375 0.9880709228515626 1.4793749999999999 0.9805709228515626 1.4878749999999998 M 1.0080709228515625 1.6053749999999998 C 1.0100709228515625 1.583875 1.0145709228515627 1.530875 1.0160709228515625 1.509375 C 1.0250709228515626 1.510875 1.0360709228515625 1.5243749999999998 1.0355709228515626 1.5438749999999999 C 1.0345709228515627 1.5713749999999997 1.0200709228515625 1.5968749999999998 1.0080709228515625 1.6053749999999998 M 1.1108343505859375 1.474875 C 1.1018343505859376 1.474875 1.0968343505859375 1.4778749999999998 1.0948343505859375 1.487375 C 1.0938343505859376 1.4968749999999997 1.0938343505859376 1.5048749999999997 1.0938343505859376 1.5143749999999998 C 1.0928343505859375 1.5903749999999999 1.0888343505859375 1.6718749999999998 1.0833343505859374 1.748875 C 1.0833343505859374 1.7503749999999998 1.0828343505859375 1.7523749999999998 1.0838343505859376 1.753375 C 1.0828343505859375 1.759375 1.0868343505859375 1.7703749999999998 1.0928343505859375 1.771375 C 1.0958343505859376 1.7718749999999999 1.0978343505859376 1.7718749999999999 1.0998343505859376 1.7718749999999999 C 1.1058343505859376 1.7718749999999999 1.1068343505859375 1.769375 1.1078343505859376 1.7623749999999998 C 1.1163343505859376 1.6733749999999998 1.1163343505859376 1.5708749999999998 1.1218343505859376 1.486875 C 1.1228343505859375 1.4778749999999998 1.1163343505859376 1.478875 1.1108343505859375 1.474875 M 1.1710936279296875 1.474875 C 1.1665936279296876 1.474875 1.1585936279296876 1.476375 1.1580936279296876 1.4813749999999999 C 1.1570936279296875 1.4848749999999997 1.1615936279296875 1.4903749999999998 1.1615936279296875 1.4938749999999998 C 1.1625936279296876 1.514875 1.1580936279296876 1.5668749999999998 1.1540936279296876 1.609875 C 1.1495936279296874 1.6568749999999999 1.1455936279296874 1.716875 1.1455936279296874 1.7638749999999999 C 1.1455936279296874 1.7758749999999999 1.1510936279296875 1.7838749999999999 1.1640936279296876 1.7843749999999998 C 1.1730936279296875 1.7843749999999998 1.1730936279296875 1.7768749999999998 1.1730936279296875 1.7698749999999999 C 1.1735936279296875 1.762875 1.1710936279296875 1.7563749999999998 1.1710936279296875 1.748875 C 1.1720936279296876 1.726875 1.1735936279296875 1.684375 1.1760936279296876 1.662375 C 1.2185936279296876 1.6448749999999999 1.2445936279296876 1.581375 1.2450936279296876 1.5468749999999998 C 1.2460936279296875 1.497375 1.2090936279296876 1.4758749999999998 1.1710936279296875 1.474875 M 1.1900936279296876 1.499375 C 1.2095936279296875 1.5003749999999998 1.2210936279296876 1.5198749999999999 1.2205936279296876 1.5468749999999998 C 1.2205936279296876 1.5688749999999998 1.2050936279296875 1.6128749999999998 1.1775936279296875 1.6338749999999997 C 1.1810936279296875 1.5908749999999998 1.1870936279296875 1.541375 1.1900936279296876 1.499375 M 1.3615789794921875 1.4783749999999998 C 1.3615789794921875 1.4743749999999998 1.3610789794921876 1.468875 1.3585789794921876 1.4673749999999999 C 1.3520789794921877 1.4638749999999998 1.3510789794921876 1.4623749999999998 1.3460789794921877 1.4623749999999998 C 1.3380789794921877 1.462875 1.3355789794921875 1.4703749999999998 1.3350789794921876 1.4778749999999998 C 1.3325789794921876 1.533375 1.3275789794921875 1.5808749999999998 1.3240789794921877 1.6368749999999999 C 1.3215789794921875 1.6833749999999998 1.3165789794921876 1.7218749999999998 1.3185789794921876 1.768875 C 1.3185789794921876 1.779375 1.3290789794921876 1.7823749999999998 1.3375789794921875 1.7823749999999998 C 1.3440789794921877 1.7823749999999998 1.3440789794921877 1.7798749999999999 1.3440789794921877 1.771375 C 1.3440789794921877 1.768875 1.3440789794921877 1.766875 1.3440789794921877 1.7638749999999999 C 1.3500789794921877 1.7598749999999999 1.3595789794921875 1.7583749999999998 1.3735789794921875 1.745375 C 1.4155789794921876 1.7053749999999999 1.4310789794921877 1.6253749999999998 1.4285789794921877 1.569375 C 1.4285789794921877 1.563375 1.4275789794921876 1.555875 1.4275789794921876 1.549875 C 1.4240789794921875 1.525375 1.4100789794921875 1.4943749999999998 1.3865789794921877 1.4833749999999999 C 1.3805789794921877 1.4813749999999999 1.3675789794921875 1.4783749999999998 1.3615789794921875 1.4783749999999998 M 1.3450789794921876 1.7338749999999998 C 1.3470789794921876 1.6953749999999999 1.3500789794921877 1.6448749999999999 1.3525789794921876 1.6063749999999999 C 1.3550789794921876 1.5748749999999998 1.3575789794921875 1.5363749999999998 1.3610789794921876 1.505375 C 1.3625789794921876 1.5048749999999997 1.3650789794921876 1.5043749999999998 1.3670789794921876 1.5043749999999998 C 1.3685789794921877 1.5043749999999998 1.3700789794921877 1.5043749999999998 1.3710789794921876 1.5048749999999997 C 1.3935789794921876 1.509375 1.4005789794921877 1.5423749999999998 1.4015789794921876 1.557875 C 1.4040789794921875 1.609875 1.3915789794921876 1.6793749999999998 1.3605789794921876 1.7213749999999999 C 1.3565789794921876 1.7273749999999999 1.3505789794921876 1.7293749999999999 1.3450789794921876 1.7338749999999998 M 1.4528267822265626 1.4878749999999998 C 1.4528267822265626 1.491375 1.4598267822265627 1.4928749999999997 1.4603267822265626 1.5078749999999999 C 1.4613267822265625 1.5223749999999998 1.4563267822265626 1.567875 1.4553267822265625 1.5828749999999998 C 1.4533267822265625 1.6233749999999998 1.4518267822265627 1.6638749999999998 1.4503267822265626 1.704875 C 1.4493267822265625 1.7243749999999998 1.4483267822265626 1.7443749999999998 1.4488267822265626 1.7643749999999998 C 1.4493267822265625 1.7778749999999999 1.4553267822265625 1.7808749999999998 1.4678267822265627 1.7808749999999998 C 1.4738267822265627 1.7808749999999998 1.4748267822265626 1.7698749999999999 1.4743267822265627 1.755375 C 1.4738267822265627 1.7323749999999998 1.4758267822265627 1.7018749999999998 1.4763267822265627 1.694875 C 1.4768267822265626 1.6813749999999998 1.4783267822265627 1.6718749999999998 1.4783267822265627 1.6538749999999998 C 1.4863267822265627 1.6708749999999999 1.5113267822265626 1.7333749999999999 1.5318267822265625 1.7363749999999998 C 1.5328267822265627 1.7363749999999998 1.5338267822265625 1.7363749999999998 1.5348267822265627 1.7363749999999998 C 1.5393267822265626 1.7363749999999998 1.5443267822265627 1.7343749999999998 1.5423267822265627 1.7298749999999998 C 1.5388267822265627 1.7233749999999999 1.5213267822265626 1.692375 1.5083267822265627 1.662375 C 1.5073267822265626 1.6598749999999998 1.4973267822265626 1.6328749999999999 1.4948267822265626 1.630375 C 1.5113267822265626 1.6113749999999998 1.5338267822265625 1.5823749999999999 1.5328267822265627 1.5428749999999998 C 1.5318267822265625 1.4983749999999998 1.5058267822265625 1.4878749999999998 1.4953267822265626 1.4793749999999999 C 1.4913267822265626 1.472375 1.4858267822265627 1.4678749999999998 1.4773267822265626 1.4678749999999998 C 1.4653267822265625 1.468375 1.4603267822265626 1.4793749999999999 1.4528267822265626 1.4878749999999998 M 1.4803267822265627 1.6053749999999998 C 1.4823267822265627 1.583875 1.4868267822265626 1.530875 1.4883267822265627 1.509375 C 1.4973267822265626 1.510875 1.5083267822265627 1.5243749999999998 1.5078267822265627 1.5438749999999999 C 1.5068267822265626 1.5713749999999997 1.4923267822265627 1.5968749999999998 1.4803267822265627 1.6053749999999998 M 1.5830902099609376 1.474875 C 1.5740902099609377 1.474875 1.5690902099609376 1.4778749999999998 1.5670902099609376 1.487375 C 1.5660902099609377 1.4968749999999997 1.5660902099609377 1.5048749999999997 1.5660902099609377 1.5143749999999998 C 1.5650902099609376 1.5903749999999999 1.5610902099609376 1.6718749999999998 1.5555902099609376 1.748875 C 1.5555902099609376 1.7503749999999998 1.5550902099609376 1.7523749999999998 1.5560902099609377 1.753375 C 1.5550902099609376 1.759375 1.5590902099609376 1.7703749999999998 1.5650902099609376 1.771375 C 1.5680902099609377 1.7718749999999999 1.5700902099609377 1.7718749999999999 1.5720902099609377 1.7718749999999999 C 1.5780902099609377 1.7718749999999999 1.5790902099609376 1.769375 1.5800902099609377 1.7623749999999998 C 1.5885902099609377 1.6733749999999998 1.5885902099609377 1.5708749999999998 1.5940902099609378 1.486875 C 1.5950902099609376 1.4778749999999998 1.5885902099609377 1.478875 1.5830902099609376 1.474875 M 1.6433494873046877 1.474875 C 1.6388494873046877 1.474875 1.6308494873046877 1.476375 1.6303494873046878 1.4813749999999999 C 1.6293494873046876 1.4848749999999997 1.6338494873046876 1.4903749999999998 1.6338494873046876 1.4938749999999998 C 1.6348494873046877 1.514875 1.6303494873046878 1.5668749999999998 1.6263494873046878 1.609875 C 1.6218494873046876 1.6568749999999999 1.6178494873046876 1.716875 1.6178494873046876 1.7638749999999999 C 1.6178494873046876 1.7758749999999999 1.6233494873046876 1.7838749999999999 1.6363494873046878 1.7843749999999998 C 1.6453494873046877 1.7843749999999998 1.6453494873046877 1.7768749999999998 1.6453494873046877 1.7698749999999999 C 1.6458494873046876 1.762875 1.6433494873046877 1.7563749999999998 1.6433494873046877 1.748875 C 1.6443494873046878 1.726875 1.6458494873046876 1.684375 1.6483494873046878 1.662375 C 1.6908494873046878 1.6448749999999999 1.7168494873046878 1.581375 1.7173494873046877 1.5468749999999998 C 1.7183494873046876 1.497375 1.6813494873046877 1.4758749999999998 1.6433494873046877 1.474875 M 1.6623494873046878 1.499375 C 1.6818494873046876 1.5003749999999998 1.6933494873046877 1.5198749999999999 1.6928494873046878 1.5468749999999998 C 1.6928494873046878 1.5688749999999998 1.6773494873046877 1.6128749999999998 1.6498494873046876 1.6338749999999997 C 1.6533494873046877 1.5908749999999998 1.6593494873046877 1.541375 1.6623494873046878 1.499375" fill="#5982da" fill-rule="nonzero"></path></g></g><defs><clipPath id="SvgjsClipPath2541"><path d=" M 0.24196867511464526 -2.0594877714692803 h 1.6054791536769595 v 1.8094877714692803 h -1.6054791536769595 Z"></path></clipPath><clipPath id="SvgjsClipPath2539a8e2014e-a693-4f31-b4ec-cbee43f26f95"><path d=" M 0.24196867511464526 -2.0594877714692803 L 1.8474478287916047 -2.0594877714692803 L 1.8474478287916047 -0.25 L 0.24196867511464526 -0.25 Z"></path></clipPath></defs></svg>